{
  "accessors": [
    {
      "bufferView": 2,
      "componentType": 5126,
      "count": 24,
      "max": [
        2.9069173336029053,
        2.9069173336029053,
        6.017370223999023
      ],
      "min": [
        -2.9069173336029053,
        -2.9069173336029053,
        0.203535795211792
      ],
      "type": "VEC3"
    },
    {
      "bufferView": 2,
      "byteOffset": 288,
      "componentType": 5126,
      "count": 24,
      "max": [
        1.0,
        1.0,
        1.0
      ],
      "min": [
        -1.0,
        -1.0,
        -1.0
      ],
      "type": "VEC3"
    },
    {
      "bufferView": 1,
      "componentType": 5126,
      "count": 24,
      "max": [
        0.9998002052307129,
        0.9998001456260681
      ],
      "min": [
        0.00019976029579993337,
        0.00019976029579993337
      ],
      "type": "VEC2"
    },
    {
      "bufferView": 0,
      "componentType": 5125,
      "count": 36,
      "type": "SCALAR"
    },
    {
      "bufferView": 2,
      "byteOffset": 576,
      "componentType": 5126,
      "count": 1086,
      "max": [
        3.111142873764038,
        3.111142873764038,
        6.221595764160156
      ],
      "min": [
        -3.111142873764038,
        -3.111142873764038,
        -0.0006897449493408203
      ],
      "type": "VEC3"
    },
    {
      "bufferView": 2,
      "byteOffset": 13608,
      "componentType": 5126,
      "count": 1086,
      "max": [
        1.0,
        1.0,
        1.0
      ],
      "min": [
        -1.0,
        -1.0,
        -1.0
      ],
      "type": "VEC3"
    },
    {
      "bufferView": 3,
      "componentType": 5126,
      "count": 1086,
      "max": [
        1.0,
        1.0,
        1.0,
        1.0
      ],
      "min": [
        -1.0,
        -1.0,
        -1.0,
        1.0
      ],
      "type": "VEC4"
    },
    {
      "bufferView": 1,
      "byteOffset": 192,
      "componentType": 5126,
      "count": 1086,
      "max": [
        0.9756259322166443,
        0.9992226362228394
      ],
      "min": [
        0.0007773496909067035,
        0.0007773496909067035
      ],
      "type": "VEC2"
    },
    {
      "bufferView": 1,
      "byteOffset": 8880,
      "componentType": 5126,
      "count": 1086,
      "max": [
        0.9756259322166443,
        0.9992226362228394
      ],
      "min": [
        0.0007773496909067035,
        0.0007773496909067035
      ],
      "type": "VEC2"
    },
    {
      "bufferView": 2,
      "byteOffset": 26640,
      "componentType": 5126,
      "count": 1086,
      "max": [
        0.5000000596046448,
        0.0,
        0.0
      ],
      "min": [
        -0.5000000596046448,
        0.0,
        0.0
      ],
      "type": "VEC3"
    },
    {
      "bufferView": 2,
      "byteOffset": 39672,
      "componentType": 5126,
      "count": 1086,
      "max": [
        0.7071070075035095,
        0.7071068286895752,
        0.7071068286895752
      ],
      "min": [
        -0.7071070075035095,
        -0.7071068286895752,
        -0.7071068286895752
      ],
      "type": "VEC3"
    },
    {
      "bufferView": 2,
      "byteOffset": 52704,
      "componentType": 5126,
      "count": 1086,
      "max": [
        0.0,
        0.0,
        0.5
      ],
      "min": [
        0.0,
        0.0,
        -0.5
      ],
      "type": "VEC3"
    },
    {
      "bufferView": 2,
      "byteOffset": 65736,
      "componentType": 5126,
      "count": 1086,
      "max": [
        0.7071070075035095,
        0.7071068286895752,
        0.7071068286895752
      ],
      "min": [
        -0.7071070075035095,
        -0.7071068286895752,
        -0.7071068286895752
      ],
      "type": "VEC3"
    },
    {
      "bufferView": 2,
      "byteOffset": 78768,
      "componentType": 5126,
      "count": 1086,
      "max": [
        0.0,
        0.5000000596046448,
        0.0
      ],
      "min": [
        0.0,
        -0.5000000596046448,
        0.0
      ],
      "type": "VEC3"
    },
    {
      "bufferView": 2,
      "byteOffset": 91800,
      "componentType": 5126,
      "count": 1086,
      "max": [
        0.7071070075035095,
        0.7071068286895752,
        0.7071068286895752
      ],
      "min": [
        -0.7071070075035095,
        -0.7071068286895752,
        -0.7071068286895752
      ],
      "type": "VEC3"
    },
    {
      "bufferView": 2,
      "byteOffset": 104832,
      "componentType": 5126,
      "count": 1086,
      "max": [
        0.5000000596046448,
        0.5000000596046448,
        0.5
      ],
      "min": [
        -0.5000000596046448,
        -0.5000000596046448,
        -0.5
      ],
      "type": "VEC3"
    },
    {
      "bufferView": 2,
      "byteOffset": 117864,
      "componentType": 5126,
      "count": 1086,
      "max": [
        0.7071070075035095,
        0.7071068286895752,
        0.7071068286895752
      ],
      "min": [
        -0.7071070075035095,
        -0.7071068286895752,
        -0.7071068286895752
      ],
      "type": "VEC3"
    },
    {
      "bufferView": 0,
      "byteOffset": 144,
      "componentType": 5125,
      "count": 2592,
      "type": "SCALAR"
    },
    {
      "bufferView": 4,
      "componentType": 5126,
      "count": 194,
      "max": [
        10.375
      ],
      "min": [
        0.0
      ],
      "type": "SCALAR"
    },
    {
      "bufferView": 5,
      "componentType": 5126,
      "count": 194,
      "max": [
        0.0,
        74.17333221435547,
        0.0
      ],
      "min": [
        0.0,
        19.43694305419922,
        0.0
      ],
      "type": "VEC3"
    },
    {
      "bufferView": 4,
      "byteOffset": 776,
      "componentType": 5126,
      "count": 1,
      "max": [
        0.0
      ],
      "min": [
        0.0
      ],
      "type": "SCALAR"
    },
    {
      "bufferView": 5,
      "byteOffset": 2328,
      "componentType": 5126,
      "count": 1,
      "max": [
        94.09982299804688,
        94.09982299804688,
        94.09982299804688
      ],
      "min": [
        94.09982299804688,
        94.09982299804688,
        94.09982299804688
      ],
      "type": "VEC3"
    },
    {
      "bufferView": 4,
      "byteOffset": 780,
      "componentType": 5126,
      "count": 124,
      "max": [
        10.399999618530273
      ],
      "min": [
        0.0
      ],
      "type": "SCALAR"
    },
    {
      "bufferView": 4,
      "byteOffset": 1276,
      "componentType": 5126,
      "count": 496,
      "max": [
        1.0491405725479126
      ],
      "min": [
        0.0
      ],
      "type": "SCALAR"
    }
  ],
  "animations": [
    {
      "channels": [
        {
          "sampler": 0,
          "target": {
            "node": 6,
            "path": "translation"
          }
        },
        {
          "sampler": 1,
          "target": {
            "node": 6,
            "path": "scale"
          }
        },
        {
          "sampler": 2,
          "target": {
            "node": 7,
            "path": "weights"
          }
        }
      ],
      "name": "Open",
      "samplers": [
        {
          "input": 18,
          "interpolation": "LINEAR",
          "output": 19
        },
        {
          "input": 20,
          "interpolation": "LINEAR",
          "output": 21
        },
        {
          "input": 22,
          "interpolation": "LINEAR",
          "output": 23
        }
      ]
    }
  ],
  "asset": {
    "extras": {
      "author": "Memorie (https://sketchfab.com/Memorie)",
      "license": "CC-BY-4.0 (http://creativecommons.org/licenses/by/4.0/)",
      "source": "https://sketchfab.com/3d-models/sci-fi-cube-2c4b8f6de26b4e869d342a92d881debe",
      "title": "Sci-Fi Cube"
    },
    "generator": "Sketchfab-12.68.0",
    "version": "2.0"
  },
  "bufferViews": [
    {
      "buffer": 0,
      "byteLength": 10512,
      "name": "floatBufferViews",
      "target": 34963
    },
    {
      "buffer": 0,
      "byteLength": 17568,
      "byteOffset": 10512,
      "byteStride": 8,
      "name": "floatBufferViews",
      "target": 34962
    },
    {
      "buffer": 0,
      "byteLength": 130896,
      "byteOffset": 28080,
      "byteStride": 12,
      "name": "floatBufferViews",
      "target": 34962
    },
    {
      "buffer": 0,
      "byteLength": 17376,
      "byteOffset": 158976,
      "byteStride": 16,
      "name": "floatBufferViews",
      "target": 34962
    },
    {
      "buffer": 0,
      "byteLength": 3260,
      "byteOffset": 176352,
      "name": "floatBufferViews"
    },
    {
      "buffer": 0,
      "byteLength": 2340,
      "byteOffset": 179612,
      "byteStride": 12,
      "name": "floatBufferViews"
    }
  ],
  "buffers": [
    {
      "byteLength": 181952,
      "uri": "scene.bin"
    }
  ],
  "images": [
    {
      "uri": "textures/Metal_Shell_baseColor.png"
    },
    {
      "uri": "textures/Metal_Shell_metallicRoughness.png"
    },
    {
      "uri": "textures/Metal_Shell_normal.png"
    }
  ],
  "materials": [
    {
      "doubleSided": true,
      "emissiveFactor": [
        0.17710786565890477,
        1.0,
        1.0
      ],
      "name": "Emission",
      "pbrMetallicRoughness": {
        "baseColorFactor": [
          0.03722762573042169,
          0.6564035463881713,
          0.8373390532284241,
          1.0
        ],
        "metallicFactor": 0.0
      }
    },
    {
      "doubleSided": true,
      "name": "Metal_Shell",
      "normalTexture": {
        "index": 2
      },
      "occlusionTexture": {
        "index": 1
      },
      "pbrMetallicRoughness": {
        "baseColorTexture": {
          "index": 0
        },
        "metallicRoughnessTexture": {
          "index": 1
        }
      }
    }
  ],
  "meshes": [
    {
      "name": "Power Cube_Emission_0",
      "primitives": [
        {
          "attributes": {
            "NORMAL": 1,
            "POSITION": 0,
            "TEXCOORD_0": 2
          },
          "indices": 3,
          "material": 0,
          "mode": 4
        }
      ]
    },
    {
      "name": "0",
      "primitives": [
        {
          "attributes": {
            "NORMAL": 5,
            "POSITION": 4,
            "TANGENT": 6,
            "TEXCOORD_0": 7,
            "TEXCOORD_1": 8
          },
          "indices": 17,
          "material": 1,
          "mode": 4,
          "targets": [
            {
              "NORMAL": 10,
              "POSITION": 9
            },
            {
              "NORMAL": 12,
              "POSITION": 11
            },
            {
              "NORMAL": 14,
              "POSITION": 13
            },
            {
              "NORMAL": 16,
              "POSITION": 15
            }
          ]
        }
      ],
      "weights": [
        0.0,
        0.0,
        0.0,
        0.0
      ]
    }
  ],
  "nodes": [
    {
      "children": [
        1
      ],
      "matrix": [
        0.0016666667070239782,
        0.0,
        0.0,
        0.0,
        0.0,
        3.7007435050284215e-19,
        -0.0016666667070239782,
        0.0,
        0.0,
        0.0016666667070239782,
        3.7007435050284215e-19,
        0.0,
        0.0,
        0.0,
        0.0,
        1.0
      ],
      "name": "Sketchfab_model"
    },
    {
      "children": [
        2
      ],
      "matrix": [
        1.0,
        0.0,
        0.0,
        0.0,
        0.0,
        0.0,
        1.0,
        0.0,
        0.0,
        -1.0,
        0.0,
        0.0,
        0.0,
        0.0,
        0.0,
        1.0
      ],
      "name": "dd6ef14ae51b43909b1ee178a049bd4e.fbx"
    },
    {
      "children": [
        3
      ],
      "name": "Object_2"
    },
    {
      "children": [
        4,
        6
      ],
      "name": "RootNode"
    },
    {
      "children": [
        5
      ],
      "name": "Power Cube",
      "rotation": [
        -0.7071068286895752,
        0.0,
        0.0,
        0.7071067094802856
      ],
      "scale": [
        94.09982299804688,
        94.09982299804688,
        94.09982299804688
      ],
      "translation": [
        0.0,
        19.43694305419922,
        0.0
      ]
    },
    {
      "mesh": 0,
      "name": "Power Cube_Emission_0"
    },
    {
      "children": [
        7
      ],
      "name": "Metal Shell",
      "rotation": [
        -0.7071068286895752,
        0.0,
        0.0,
        0.7071067094802856
      ],
      "scale": [
        100.0,
        100.0,
        100.0
      ],
      "translation": [
        0.0,
        0.2767927944660187,
        0.0
      ]
    },
    {
      "mesh": 1,
      "name": "0"
    }
  ],
  "samplers": [
    {
      "magFilter": 9729,
      "minFilter": 9987,
      "wrapS": 10497,
      "wrapT": 10497
    }
  ],
  "scene": 0,
  "scenes": [
    {
      "name": "Sketchfab_Scene",
      "nodes": [
        0
      ]
    }
  ],
  "textures": [
    {
      "sampler": 0,
      "source": 0
    },
    {
      "sampler": 0,
      "source": 1
    },
    {
      "sampler": 0,
      "source": 2
    }
  ]
}
