{
  "accessors": [
    {
      "bufferView": 2,
      "componentType": 5126,
      "count": 24,
      "max": [
        0.7760810852050781,
        -4.332767963409424,
        4.478297233581543
      ],
      "min": [
        -12.72797966003418,
        -4.417568206787109,
        -11.551779747009277
      ],
      "type": "VEC3"
    },
    {
      "bufferView": 2,
      "byteOffset": 288,
      "componentType": 5126,
      "count": 24,
      "max": [
        1.0,
        1.0,
        1.0
      ],
      "min": [
        -1.0,
        -1.0,
        -1.0
      ],
      "type": "VEC3"
    },
    {
      "bufferView": 1,
      "componentType": 5126,
      "count": 24,
      "max": [
        0.875,
        1.0
      ],
      "min": [
        0.125,
        0.0
      ],
      "type": "VEC2"
    },
    {
      "bufferView": 1,
      "byteOffset": 192,
      "componentType": 5126,
      "count": 24,
      "max": [
        0.0,
        0.0
      ],
      "min": [
        0.0,
        0.0
      ],
      "type": "VEC2"
    },
    {
      "bufferView": 1,
      "byteOffset": 384,
      "componentType": 5126,
      "count": 24,
      "max": [
        0.0,
        0.0
      ],
      "min": [
        0.0,
        0.0
      ],
      "type": "VEC2"
    },
    {
      "bufferView": 1,
      "byteOffset": 576,
      "componentType": 5126,
      "count": 24,
      "max": [
        0.0,
        0.0
      ],
      "min": [
        0.0,
        0.0
      ],
      "type": "VEC2"
    },
    {
      "bufferView": 0,
      "componentType": 5125,
      "count": 36,
      "type": "SCALAR"
    },
    {
      "bufferView": 2,
      "byteOffset": 576,
      "componentType": 5126,
      "count": 33776,
      "max": [
        8.049209594726563,
        8.071860313415527,
        19.22517967224121
      ],
      "min": [
        -25.04892921447754,
        -16.0,
        0.34513089060783386
      ],
      "type": "VEC3"
    },
    {
      "bufferView": 2,
      "byteOffset": 405888,
      "componentType": 5126,
      "count": 33776,
      "max": [
        1.0,
        1.0,
        1.0
      ],
      "min": [
        -1.0,
        -1.0,
        -1.0
      ],
      "type": "VEC3"
    },
    {
      "bufferView": 1,
      "byteOffset": 768,
      "componentType": 5126,
      "count": 33776,
      "max": [
        0.9979636073112488,
        0.9973853230476379
      ],
      "min": [
        0.0020371670834720135,
        0.0020368690602481365
      ],
      "type": "VEC2"
    },
    {
      "bufferView": 1,
      "byteOffset": 270976,
      "componentType": 5126,
      "count": 33776,
      "max": [
        0.0,
        0.0
      ],
      "min": [
        0.0,
        0.0
      ],
      "type": "VEC2"
    },
    {
      "bufferView": 1,
      "byteOffset": 541184,
      "componentType": 5126,
      "count": 33776,
      "max": [
        0.9527186751365662,
        0.9869564771652222
      ],
      "min": [
        0.0,
        0.0
      ],
      "type": "VEC2"
    },
    {
      "bufferView": 1,
      "byteOffset": 811392,
      "componentType": 5126,
      "count": 33776,
      "max": [
        1.0,
        0.9884380102157593
      ],
      "min": [
        0.0,
        0.0
      ],
      "type": "VEC2"
    },
    {
      "bufferView": 0,
      "byteOffset": 144,
      "componentType": 5125,
      "count": 120063,
      "type": "SCALAR"
    },
    {
      "bufferView": 2,
      "byteOffset": 811200,
      "componentType": 5126,
      "count": 132,
      "max": [
        4.99022912979126,
        6.209265232086182,
        19.187349319458008
      ],
      "min": [
        -21.938749313354492,
        -12.146650314331055,
        17.592599868774414
      ],
      "type": "VEC3"
    },
    {
      "bufferView": 2,
      "byteOffset": 812784,
      "componentType": 5126,
      "count": 132,
      "max": [
        0.00022616100613959134,
        0.0,
        -1.0
      ],
      "min": [
        -0.0001902679941849783,
        0.0,
        -1.0
      ],
      "type": "VEC3"
    },
    {
      "bufferView": 1,
      "byteOffset": 1081600,
      "componentType": 5126,
      "count": 132,
      "max": [
        0.9340121150016785,
        0.9748753905296326
      ],
      "min": [
        0.15033109486103058,
        0.5624330043792725
      ],
      "type": "VEC2"
    },
    {
      "bufferView": 1,
      "byteOffset": 1082656,
      "componentType": 5126,
      "count": 132,
      "max": [
        0.0,
        0.0
      ],
      "min": [
        0.0,
        0.0
      ],
      "type": "VEC2"
    },
    {
      "bufferView": 1,
      "byteOffset": 1083712,
      "componentType": 5126,
      "count": 132,
      "max": [
        0.0,
        0.0
      ],
      "min": [
        0.0,
        0.0
      ],
      "type": "VEC2"
    },
    {
      "bufferView": 1,
      "byteOffset": 1084768,
      "componentType": 5126,
      "count": 132,
      "max": [
        0.0,
        0.0
      ],
      "min": [
        0.0,
        0.0
      ],
      "type": "VEC2"
    },
    {
      "bufferView": 0,
      "byteOffset": 480396,
      "componentType": 5125,
      "count": 366,
      "type": "SCALAR"
    },
    {
      "bufferView": 2,
      "byteOffset": 814368,
      "componentType": 5126,
      "count": 4,
      "max": [
        0.7350764870643616,
        -9.61913013458252,
        2.9026589393615723
      ],
      "min": [
        0.7350760102272034,
        -13.611490249633789,
        -3.039573907852173
      ],
      "type": "VEC3"
    },
    {
      "bufferView": 2,
      "byteOffset": 814416,
      "componentType": 5126,
      "count": 4,
      "max": [
        -1.0,
        0.0,
        0.0
      ],
      "min": [
        -1.0,
        -1.2059800269526022e-07,
        0.0
      ],
      "type": "VEC3"
    },
    {
      "bufferView": 1,
      "byteOffset": 1085824,
      "componentType": 5126,
      "count": 4,
      "max": [
        0.8785973787307739,
        0.7137830257415771
      ],
      "min": [
        0.6550363898277283,
        0.5362169742584229
      ],
      "type": "VEC2"
    },
    {
      "bufferView": 1,
      "byteOffset": 1085856,
      "componentType": 5126,
      "count": 4,
      "max": [
        0.0,
        0.0
      ],
      "min": [
        0.0,
        0.0
      ],
      "type": "VEC2"
    },
    {
      "bufferView": 1,
      "byteOffset": 1085888,
      "componentType": 5126,
      "count": 4,
      "max": [
        0.0,
        0.0
      ],
      "min": [
        0.0,
        0.0
      ],
      "type": "VEC2"
    },
    {
      "bufferView": 1,
      "byteOffset": 1085920,
      "componentType": 5126,
      "count": 4,
      "max": [
        0.0,
        0.0
      ],
      "min": [
        0.0,
        0.0
      ],
      "type": "VEC2"
    },
    {
      "bufferView": 0,
      "byteOffset": 481860,
      "componentType": 5125,
      "count": 6,
      "type": "SCALAR"
    },
    {
      "bufferView": 2,
      "byteOffset": 814464,
      "componentType": 5126,
      "count": 12,
      "max": [
        -31.88188934326172,
        -6.421924114227295,
        2.757922887802124
      ],
      "min": [
        -31.88188934326172,
        -15.952110290527344,
        -9.540027618408203
      ],
      "type": "VEC3"
    },
    {
      "bufferView": 2,
      "byteOffset": 814608,
      "componentType": 5126,
      "count": 12,
      "max": [
        1.0,
        0.0,
        1.5509499462496024e-07
      ],
      "min": [
        1.0,
        0.0,
        0.0
      ],
      "type": "VEC3"
    },
    {
      "bufferView": 1,
      "byteOffset": 1085952,
      "componentType": 5126,
      "count": 12,
      "max": [
        0.9980080127716064,
        0.5345206260681152
      ],
      "min": [
        0.001991986995562911,
        0.0019911520648747683
      ],
      "type": "VEC2"
    },
    {
      "bufferView": 1,
      "byteOffset": 1086048,
      "componentType": 5126,
      "count": 12,
      "max": [
        0.0,
        0.0
      ],
      "min": [
        0.0,
        0.0
      ],
      "type": "VEC2"
    },
    {
      "bufferView": 1,
      "byteOffset": 1086144,
      "componentType": 5126,
      "count": 12,
      "max": [
        0.0,
        0.0
      ],
      "min": [
        0.0,
        0.0
      ],
      "type": "VEC2"
    },
    {
      "bufferView": 1,
      "byteOffset": 1086240,
      "componentType": 5126,
      "count": 12,
      "max": [
        0.0,
        0.0
      ],
      "min": [
        0.0,
        0.0
      ],
      "type": "VEC2"
    },
    {
      "bufferView": 0,
      "byteOffset": 481884,
      "componentType": 5125,
      "count": 12,
      "type": "SCALAR"
    },
    {
      "bufferView": 2,
      "byteOffset": 814752,
      "componentType": 5126,
      "count": 39,
      "max": [
        9.655686378479004,
        9.306649208068848,
        20.592510223388672
      ],
      "min": [
        -25.49799919128418,
        -16.0,
        -0.9245582222938538
      ],
      "type": "VEC3"
    },
    {
      "bufferView": 2,
      "byteOffset": 815220,
      "componentType": 5126,
      "count": 39,
      "max": [
        1.0,
        1.0,
        1.0
      ],
      "min": [
        -1.0,
        -1.0,
        -1.0
      ],
      "type": "VEC3"
    },
    {
      "bufferView": 1,
      "byteOffset": 1086336,
      "componentType": 5126,
      "count": 39,
      "max": [
        0.6517344117164612,
        0.6720535159111023
      ],
      "min": [
        0.0020411009900271893,
        0.0020419349893927574
      ],
      "type": "VEC2"
    },
    {
      "bufferView": 1,
      "byteOffset": 1086648,
      "componentType": 5126,
      "count": 39,
      "max": [
        0.0,
        0.0
      ],
      "min": [
        0.0,
        0.0
      ],
      "type": "VEC2"
    },
    {
      "bufferView": 1,
      "byteOffset": 1086960,
      "componentType": 5126,
      "count": 39,
      "max": [
        0.0,
        0.0
      ],
      "min": [
        0.0,
        0.0
      ],
      "type": "VEC2"
    },
    {
      "bufferView": 1,
      "byteOffset": 1087272,
      "componentType": 5126,
      "count": 39,
      "max": [
        0.0,
        0.0
      ],
      "min": [
        0.0,
        0.0
      ],
      "type": "VEC2"
    },
    {
      "bufferView": 0,
      "byteOffset": 481932,
      "componentType": 5125,
      "count": 69,
      "type": "SCALAR"
    }
  ],
  "asset": {
    "extras": {
      "author": "RaynaudL (https://sketchfab.com/fts_ltx)",
      "license": "CC-BY-NC-4.0 (http://creativecommons.org/licenses/by-nc/4.0/)",
      "source": "https://sketchfab.com/3d-models/simple-bathroom-baking-68e58cbb9bb042cc8e14443759941f69",
      "title": "Simple Bathroom Baking"
    },
    "generator": "Sketchfab-14.22.0",
    "version": "2.0"
  },
  "bufferViews": [
    {
      "buffer": 0,
      "byteLength": 482208,
      "name": "floatBufferViews",
      "target": 34963
    },
    {
      "buffer": 0,
      "byteLength": 1087584,
      "byteOffset": 482208,
      "byteStride": 8,
      "name": "floatBufferViews",
      "target": 34962
    },
    {
      "buffer": 0,
      "byteLength": 815688,
      "byteOffset": 1569792,
      "byteStride": 12,
      "name": "floatBufferViews",
      "target": 34962
    }
  ],
  "buffers": [
    {
      "byteLength": 2385480,
      "uri": "scene.bin"
    }
  ],
  "extensionsUsed": [
    "KHR_materials_unlit"
  ],
  "images": [
    {
      "uri": "textures/winter_base_color_baseColor.jpeg"
    },
    {
      "uri": "textures/x_combined_baseColor.jpeg"
    }
  ],
  "materials": [
    {
      "doubleSided": true,
      "extensions": {
        "KHR_materials_unlit": {}
      },
      "name": "black",
      "pbrMetallicRoughness": {
        "baseColorFactor": [
          0.0,
          0.0,
          0.0,
          1.0
        ],
        "metallicFactor": 0.0
      }
    },
    {
      "doubleSided": true,
      "emissiveFactor": [
        0.9917074368612931,
        0.9917074368612931,
        0.9917074368612931
      ],
      "emissiveTexture": {
        "index": 0
      },
      "extensions": {
        "KHR_materials_unlit": {}
      },
      "name": "winter_base_color",
      "pbrMetallicRoughness": {
        "baseColorTexture": {
          "index": 0
        },
        "metallicFactor": 0.0
      }
    },
    {
      "alphaMode": "BLEND",
      "doubleSided": true,
      "emissiveFactor": [
        1.0,
        1.0,
        1.0
      ],
      "extensions": {
        "KHR_materials_unlit": {}
      },
      "name": "mirroir",
      "pbrMetallicRoughness": {
        "baseColorFactor": [
          0.3916457306207774,
          0.34920014545042405,
          0.34920014545042405,
          0.4391847220385727
        ],
        "metallicFactor": 0.0
      }
    },
    {
      "doubleSided": true,
      "emissiveFactor": [
        1.0,
        1.0,
        1.0
      ],
      "extensions": {
        "KHR_materials_unlit": {}
      },
      "name": "Material.007",
      "pbrMetallicRoughness": {
        "baseColorFactor": [
          0.8,
          0.8,
          0.8,
          1.0
        ],
        "metallicFactor": 0.0
      }
    },
    {
      "doubleSided": true,
      "extensions": {
        "KHR_materials_unlit": {}
      },
      "name": "x_combined",
      "pbrMetallicRoughness": {
        "baseColorTexture": {
          "index": 1
        },
        "metallicFactor": 0.0
      }
    },
    {
      "alphaMode": "BLEND",
      "doubleSided": true,
      "extensions": {
        "KHR_materials_unlit": {}
      },
      "name": "vitre",
      "pbrMetallicRoughness": {
        "baseColorFactor": [
          0.5528375425804543,
          0.5528375425804543,
          0.5528375425804543,
          0.004722416366006158
        ],
        "metallicFactor": 0.0
      }
    }
  ],
  "meshes": [
    {
      "name": "vitre-material",
      "primitives": [
        {
          "attributes": {
            "NORMAL": 1,
            "POSITION": 0,
            "TEXCOORD_0": 2,
            "TEXCOORD_1": 3,
            "TEXCOORD_2": 4,
            "TEXCOORD_3": 5
          },
          "indices": 6,
          "material": 5,
          "mode": 4
        }
      ]
    },
    {
      "name": "x_combined-material",
      "primitives": [
        {
          "attributes": {
            "NORMAL": 8,
            "POSITION": 7,
            "TEXCOORD_0": 9,
            "TEXCOORD_1": 10,
            "TEXCOORD_2": 11,
            "TEXCOORD_3": 12
          },
          "indices": 13,
          "material": 4,
          "mode": 4
        }
      ]
    },
    {
      "name": "Material_007-material",
      "primitives": [
        {
          "attributes": {
            "NORMAL": 15,
            "POSITION": 14,
            "TEXCOORD_0": 16,
            "TEXCOORD_1": 17,
            "TEXCOORD_2": 18,
            "TEXCOORD_3": 19
          },
          "indices": 20,
          "material": 3,
          "mode": 4
        }
      ]
    },
    {
      "name": "mirroir-material",
      "primitives": [
        {
          "attributes": {
            "NORMAL": 22,
            "POSITION": 21,
            "TEXCOORD_0": 23,
            "TEXCOORD_1": 24,
            "TEXCOORD_2": 25,
            "TEXCOORD_3": 26
          },
          "indices": 27,
          "material": 2,
          "mode": 4
        }
      ]
    },
    {
      "name": "winter_base_color-material",
      "primitives": [
        {
          "attributes": {
            "NORMAL": 29,
            "POSITION": 28,
            "TEXCOORD_0": 30,
            "TEXCOORD_1": 31,
            "TEXCOORD_2": 32,
            "TEXCOORD_3": 33
          },
          "indices": 34,
          "material": 1,
          "mode": 4
        }
      ]
    },
    {
      "name": "black-material",
      "primitives": [
        {
          "attributes": {
            "NORMAL": 36,
            "POSITION": 35,
            "TEXCOORD_0": 37,
            "TEXCOORD_1": 38,
            "TEXCOORD_2": 39,
            "TEXCOORD_3": 40
          },
          "indices": 41,
          "material": 0,
          "mode": 4
        }
      ]
    }
  ],
  "nodes": [
    {
      "children": [
        1
      ],
      "matrix": [
        0.1388888955116272,
        0.0,
        0.0,
        0.0,
        0.0,
        3.0839529932353215e-17,
        -0.1388888955116272,
        0.0,
        0.0,
        0.1388888955116272,
        3.0839529932353215e-17,
        0.0,
        0.0,
        0.0,
        0.0,
        1.0
      ],
      "name": "Sketchfab_model"
    },
    {
      "children": [
        2,
        4,
        6,
        8,
        10,
        12
      ],
      "name": "Collada visual scene group"
    },
    {
      "children": [
        3
      ],
      "matrix": [
        1.0,
        0.0,
        0.0,
        0.0,
        0.0,
        1.0,
        0.0,
        0.0,
        0.0,
        0.0,
        1.0,
        0.0,
        7.240202,
        3.319223,
        13.15178,
        1.0
      ],
      "name": "vitre"
    },
    {
      "mesh": 0,
      "name": "vitre-material"
    },
    {
      "children": [
        5
      ],
      "name": "bath1"
    },
    {
      "mesh": 1,
      "name": "x_combined-material"
    },
    {
      "children": [
        7
      ],
      "name": "light"
    },
    {
      "mesh": 2,
      "name": "Material_007-material"
    },
    {
      "children": [
        9
      ],
      "matrix": [
        1.0,
        0.0,
        0.0,
        0.0,
        0.0,
        1.0,
        0.0,
        0.0,
        0.0,
        0.0,
        1.0,
        0.0,
        7.240202,
        3.319223,
        13.15178,
        1.0
      ],
      "name": "mirror1"
    },
    {
      "mesh": 3,
      "name": "mirroir-material"
    },
    {
      "children": [
        11
      ],
      "matrix": [
        1.0,
        0.0,
        0.0,
        0.0,
        0.0,
        1.0,
        0.0,
        0.0,
        0.0,
        0.0,
        1.0,
        0.0,
        7.240202,
        3.319223,
        13.15178,
        1.0
      ],
      "name": "exterior"
    },
    {
      "mesh": 4,
      "name": "winter_base_color-material"
    },
    {
      "children": [
        13
      ],
      "name": "black"
    },
    {
      "mesh": 5,
      "name": "black-material"
    }
  ],
  "samplers": [
    {
      "magFilter": 9729,
      "minFilter": 9987,
      "wrapS": 10497,
      "wrapT": 10497
    }
  ],
  "scene": 0,
  "scenes": [
    {
      "name": "Sketchfab_Scene",
      "nodes": [
        0
      ]
    }
  ],
  "textures": [
    {
      "sampler": 0,
      "source": 0
    },
    {
      "sampler": 0,
      "source": 1
    }
  ]
}
