{"accessors" : [{"bufferView" : 0, "byteOffset" : 0, "componentType" : 5123, "count" : 960, "type" : "SCALAR", "max" : [799], "min" : [0]}, {"bufferView" : 1, "byteOffset" : 0, "componentType" : 5126, "count" : 800, "type" : "VEC3", "max" : [0, 1.1299999952316284, 1.9700000286102295], "min" : [-1.0499999523162842, -1.1299999952316284, -1.9700000286102295], "name" : "POSITION"}, {"bufferView" : 1, "byteOffset" : 12, "componentType" : 5126, "count" : 800, "type" : "VEC2", "max" : [0.9979959726333618, -0.1895039975643158], "min" : [0.0020039998926222324, -0.9979959726333618], "name" : "TEXCOORD_0"}, {"bufferView" : 1, "byteOffset" : 20, "componentType" : 5126, "count" : 800, "type" : "VEC3", "max" : [1.0000044107437134, 1.0000044107437134, 1.0000044107437134], "min" : [-1.0000044107437134, -1.0000044107437134, -1.0000044107437134], "name" : "NORMAL"}, {"bufferView" : 0, "byteOffset" : 1920, "componentType" : 5123, "count" : 3300, "type" : "SCALAR", "max" : [2849], "min" : [0]}, {"bufferView" : 2, "byteOffset" : 0, "componentType" : 5126, "count" : 2850, "type" : "VEC3", "max" : [0.30000001192092896, 0.30000001192092896, 0.30000001192092896], "min" : [-0.30000001192092896, -0.30000001192092896, -0.30000001192092896], "name" : "POSITION"}, {"bufferView" : 2, "byteOffset" : 12, "componentType" : 5126, "count" : 2850, "type" : "VEC2", "max" : [0.9979959726333618, -0.0020039998926222324], "min" : [0.0020039998926222324, -0.9979959726333618], "name" : "TEXCOORD_0"}, {"bufferView" : 2, "byteOffset" : 20, "componentType" : 5126, "count" : 2850, "type" : "VEC3", "max" : [1.0000044107437134, 1.0000044107437134, 1.0000044107437134], "min" : [-1.0000044107437134, -1.0000044107437134, -1.0000044107437134], "name" : "NORMAL"}], "asset" : {"generator" : "Aspose.3D 22.10", "version" : "2.0"}, "buffers" : [{"uri" : "data:application/octet-stream;base64,", "byteLength" : 144852}], "bufferViews" : [{"buffer" : 0, "byteOffset" : 0, "byteLength" : 8520, "target" : 34963}, {"buffer" : 0, "byteOffset" : 8524, "byteLength" : 30720, "byteStride" : 32, "target" : 34962}, {"buffer" : 0, "byteOffset" : 39248, "byteLength" : 105600, "byteStride" : 32, "target" : 34962}], "meshes" : [{"primitives" : [{"attributes" : {"POSITION" : 1, "TEXCOORD_0" : 2, "NORMAL" : 3}, "indices" : 0, "mode" : 4}], "name" : ""}, {"primitives" : [{"attributes" : {"POSITION" : 5, "TEXCOORD_0" : 6, "NORMAL" : 7}, "indices" : 4, "mode" : 4}], "name" : ""}], "nodes" : [{"mesh" : 0, "name" : "Plane"}, {"mesh" : 1, "name" : "Cube.011_Cube.012"}], "scene" : 0, "scenes" : [{"nodes" : [0, 1]}]}